<svg width="70" height="52" viewBox="0 0 70 52" fill="none" xmlns="http://www.w3.org/2000/svg">
<g filter="url(#filter0_b_73_317)">
<g filter="url(#filter1_i_73_317)">
<path d="M38.7836 10.4109C38.8672 9.93615 38.9108 9.44774 38.9108 8.94925C38.9108 4.28582 35.0951 0.505371 30.3882 0.505371C26.889 0.505371 23.8824 2.5947 22.5699 5.5829C21.5065 4.67334 20.1268 4.12417 18.6189 4.12417C15.2569 4.12417 12.5314 6.8545 12.5314 10.2225C12.5314 10.4101 12.5398 10.5956 12.5564 10.7789C10.9393 11.5636 9.82579 13.2103 9.82579 15.1146C9.82579 17.7794 12.0062 19.9397 14.6958 19.9397H37.6933C40.383 19.9397 42.5634 17.7794 42.5634 15.1146C42.5634 12.8212 40.9483 10.9014 38.7836 10.4109Z" fill="url(#paint0_linear_73_317)"/>
</g>
</g>
<g filter="url(#filter2_b_73_317)">
<g filter="url(#filter3_i_73_317)">
<path d="M14.9733 26.6158C15.0153 26.3774 15.0372 26.1321 15.0372 25.8818C15.0372 23.54 13.1211 21.6416 10.7574 21.6416C9.00028 21.6416 7.49045 22.6908 6.83134 24.1913C6.29739 23.7346 5.60451 23.4588 4.84734 23.4588C3.15903 23.4588 1.79039 24.8299 1.79039 26.5212C1.79039 26.6154 1.79463 26.7086 1.80294 26.8006C0.990891 27.1947 0.431742 28.0215 0.431742 28.9778C0.431742 30.316 1.52666 31.4008 2.8773 31.4008H14.4258C15.7764 31.4008 16.8713 30.316 16.8713 28.9778C16.8713 27.8261 16.0603 26.8621 14.9733 26.6158Z" fill="url(#paint1_linear_73_317)"/>
</g>
</g>
<g filter="url(#filter4_i_73_317)">
<path d="M62.4109 33.3216C62.5695 32.4241 62.6522 31.5008 62.6522 30.5585C62.6522 21.743 55.4138 14.5967 46.4847 14.5967C39.8467 14.5967 34.143 18.5462 31.6531 24.1949C29.636 22.4756 27.0185 21.4375 24.1581 21.4375C17.7802 21.4375 12.6099 26.5987 12.6099 32.9654C12.6099 33.32 12.6259 33.6707 12.6573 34.0171C9.58962 35.5006 7.47733 38.6133 7.47733 42.2131C7.47733 47.2505 11.6136 51.3342 16.7159 51.3342H60.3426C65.4449 51.3342 69.5812 47.2505 69.5812 42.2131C69.5812 37.8777 66.5174 34.2488 62.4109 33.3216Z" fill="url(#paint2_linear_73_317)"/>
</g>
<defs>
<filter id="filter0_b_73_317" x="6.70243" y="-2.61849" width="38.9843" height="25.6813" filterUnits="userSpaceOnUse" color-interpolation-filters="sRGB">
<feFlood flood-opacity="0" result="BackgroundImageFix"/>
<feGaussianBlur in="BackgroundImageFix" stdDeviation="1.56169"/>
<feComposite in2="SourceAlpha" operator="in" result="effect1_backgroundBlur_73_317"/>
<feBlend mode="normal" in="SourceGraphic" in2="effect1_backgroundBlur_73_317" result="shape"/>
</filter>
<filter id="filter1_i_73_317" x="9.82581" y="0.505371" width="32.7375" height="20.5909" filterUnits="userSpaceOnUse" color-interpolation-filters="sRGB">
<feFlood flood-opacity="0" result="BackgroundImageFix"/>
<feBlend mode="normal" in="SourceGraphic" in2="BackgroundImageFix" result="shape"/>
<feColorMatrix in="SourceAlpha" type="matrix" values="0 0 0 0 0 0 0 0 0 0 0 0 0 0 0 0 0 0 127 0" result="hardAlpha"/>
<feOffset dy="1.27248"/>
<feGaussianBlur stdDeviation="0.578402"/>
<feComposite in2="hardAlpha" operator="arithmetic" k2="-1" k3="1"/>
<feColorMatrix type="matrix" values="0 0 0 0 1 0 0 0 0 1 0 0 0 0 1 0 0 0 1 0"/>
<feBlend mode="normal" in2="shape" result="effect1_innerShadow_73_317"/>
</filter>
<filter id="filter2_b_73_317" x="-1.13668" y="20.0732" width="19.5765" height="12.8962" filterUnits="userSpaceOnUse" color-interpolation-filters="sRGB">
<feFlood flood-opacity="0" result="BackgroundImageFix"/>
<feGaussianBlur in="BackgroundImageFix" stdDeviation="0.784221"/>
<feComposite in2="SourceAlpha" operator="in" result="effect1_backgroundBlur_73_317"/>
<feBlend mode="normal" in="SourceGraphic" in2="effect1_backgroundBlur_73_317" result="shape"/>
</filter>
<filter id="filter3_i_73_317" x="0.431763" y="21.6416" width="16.4396" height="10.3402" filterUnits="userSpaceOnUse" color-interpolation-filters="sRGB">
<feFlood flood-opacity="0" result="BackgroundImageFix"/>
<feBlend mode="normal" in="SourceGraphic" in2="BackgroundImageFix" result="shape"/>
<feColorMatrix in="SourceAlpha" type="matrix" values="0 0 0 0 0 0 0 0 0 0 0 0 0 0 0 0 0 0 127 0" result="hardAlpha"/>
<feOffset dy="0.638995"/>
<feGaussianBlur stdDeviation="0.290452"/>
<feComposite in2="hardAlpha" operator="arithmetic" k2="-1" k3="1"/>
<feColorMatrix type="matrix" values="0 0 0 0 1 0 0 0 0 1 0 0 0 0 1 0 0 0 1 0"/>
<feBlend mode="normal" in2="shape" result="effect1_innerShadow_73_317"/>
</filter>
<filter id="filter4_i_73_317" x="7.47729" y="14.5967" width="62.1039" height="41.1108" filterUnits="userSpaceOnUse" color-interpolation-filters="sRGB">
<feFlood flood-opacity="0" result="BackgroundImageFix"/>
<feBlend mode="normal" in="SourceGraphic" in2="BackgroundImageFix" result="shape"/>
<feColorMatrix in="SourceAlpha" type="matrix" values="0 0 0 0 0 0 0 0 0 0 0 0 0 0 0 0 0 0 127 0" result="hardAlpha"/>
<feOffset dy="4.81086"/>
<feGaussianBlur stdDeviation="2.18676"/>
<feComposite in2="hardAlpha" operator="arithmetic" k2="-1" k3="1"/>
<feColorMatrix type="matrix" values="0 0 0 0 1 0 0 0 0 1 0 0 0 0 1 0 0 0 1 0"/>
<feBlend mode="normal" in2="shape" result="effect1_innerShadow_73_317"/>
</filter>
<linearGradient id="paint0_linear_73_317" x1="11.908" y1="18.2045" x2="44.9348" y2="-6.4933" gradientUnits="userSpaceOnUse">
<stop stop-color="#DDDDDD"/>
<stop offset="1" stop-color="white" stop-opacity="0.58"/>
</linearGradient>
<linearGradient id="paint1_linear_73_317" x1="1.47737" y1="30.5294" x2="18.0622" y2="18.1271" gradientUnits="userSpaceOnUse">
<stop stop-color="#DDDDDD"/>
<stop offset="1" stop-color="white" stop-opacity="0.58"/>
</linearGradient>
<linearGradient id="paint2_linear_73_317" x1="11.4274" y1="48.054" x2="73.9212" y2="1.15536" gradientUnits="userSpaceOnUse">
<stop stop-color="#DDDDDD"/>
<stop offset="1" stop-color="white" stop-opacity="0.58"/>
</linearGradient>
</defs>
</svg>
